<svg xmlns="http://www.w3.org/2000/svg" width="24" height="24" viewBox="0 0 24 24" fill="none" stroke="#CD7F32" stroke-width="2" stroke-linecap="round" stroke-linejoin="round">
  <path d="M4 9.5V4a2 2 0 0 1 2-2h12a2 2 0 0 1 2 2v5.5"/>
  <path d="M2 9.5h20"/>
  <path d="M12 10.5v4"/>
  <path d="M4 9.5l-.7 5.5.7 1"/>
  <path d="M20 9.5l.7 5.5-.7 1"/>
  <path d="M8 9.5v10"/>
  <path d="M16 9.5v10"/>
  <path d="M4 20.5h16"/>
  <path d="M4 13.5h16"/>
  <path d="M8 15.5v2"/>
  <path d="M16 15.5v2"/>
  <path d="M12 12.5v2"/>
</svg>